<?xml version="1.0" standalone="no"?>
<!DOCTYPE svg PUBLIC "-//W3C//DTD SVG 20010904//EN"
 "http://www.w3.org/TR/2001/REC-SVG-20010904/DTD/svg10.dtd">
<svg version="1.0" xmlns="http://www.w3.org/2000/svg"
 width="512.000000pt" height="512.000000pt" viewBox="0 0 512.000000 512.000000"
 preserveAspectRatio="xMidYMid meet">

<g transform="translate(0.000000,512.000000) scale(0.100000,-0.100000)"
fill="#686868" stroke="none">
<path d="M1945 4833 c-316 -158 -575 -290 -575 -293 0 -3 269 -140 598 -304
l597 -298 593 296 c325 163 592 299 592 304 0 4 -260 137 -577 295 -453 226
-586 288 -615 287 -28 0 -177 -70 -613 -287z"/>
<path d="M1210 3553 l0 -718 23 -40 c21 -38 45 -52 592 -327 314 -158 573
-287 578 -288 4 0 7 337 7 750 l0 750 -590 295 c-324 162 -594 295 -600 295
-7 0 -10 -244 -10 -717z"/>
<path d="M3303 3972 l-593 -297 0 -747 c0 -412 3 -748 8 -748 4 1 264 130 577
288 547 275 571 289 592 327 l23 40 0 718 c0 394 -3 717 -7 716 -5 0 -275
-134 -600 -297z"/>
<path d="M84 3580 c-25 -12 -49 -35 -62 -59 l-22 -39 0 -876 c0 -727 2 -882
14 -910 8 -19 269 -305 600 -656 l586 -622 0 -150 c0 -175 12 -213 80 -248 38
-19 58 -20 520 -20 462 0 482 1 520 20 26 13 47 34 60 60 19 38 20 58 20 674
0 422 -4 644 -11 663 -13 36 -665 691 -746 749 -115 83 -249 130 -404 141
-142 10 -231 -34 -283 -139 -53 -105 -75 -74 363 -513 344 -345 390 -394 397
-428 20 -110 -75 -201 -183 -177 -31 7 -104 76 -455 427 -231 230 -427 432
-436 448 -14 27 -17 104 -22 665 -6 630 -6 635 -29 692 -72 183 -223 301 -401
314 -53 4 -73 1 -106 -16z"/>
<path d="M4851 3584 c-148 -40 -260 -144 -322 -299 l-23 -60 -6 -635 c-5 -560
-8 -639 -22 -665 -9 -16 -205 -218 -436 -448 -351 -351 -424 -420 -455 -427
-108 -24 -203 67 -183 177 7 34 53 83 397 428 l389 391 2 71 c2 117 -40 166
-157 185 -175 27 -393 -22 -542 -123 -65 -44 -739 -715 -758 -755 -13 -28 -15
-120 -15 -668 0 -618 1 -638 20 -676 13 -26 34 -47 60 -60 38 -19 58 -20 520
-20 462 0 482 1 520 20 68 35 80 73 80 248 l0 150 586 622 c331 351 592 637
600 656 12 28 14 183 14 910 l0 876 -22 39 c-40 72 -129 95 -247 63z"/>
</g>
</svg>
