<?xml version="1.0" standalone="no"?>
<!DOCTYPE svg PUBLIC "-//W3C//DTD SVG 20010904//EN"
 "http://www.w3.org/TR/2001/REC-SVG-20010904/DTD/svg10.dtd">
<svg version="1.0" xmlns="http://www.w3.org/2000/svg"
 width="1024.000000pt" height="1024.000000pt" viewBox="0 0 1024.000000 1024.000000"
 preserveAspectRatio="xMidYMid meet">

<g transform="translate(0.000000,1024.000000) scale(0.100000,-0.100000)"
fill="#000000" stroke="none">
<path d="M1156 9783 c-1 -1 -42 -7 -91 -13 -167 -21 -283 -75 -434 -205 -80
-69 -164 -208 -212 -350 l-24 -70 -2 -2570 c-4 -3343 8 -5490 30 -5560 78
-257 273 -452 537 -536 l75 -24 4020 0 4020 0 90 29 c194 61 347 181 446 346
40 68 84 183 99 260 4 25 9 1838 11 4030 2 3784 1 3989 -16 4060 -72 307 -328
542 -641 590 -47 7 -1300 11 -3987 13 -2155 1 -3920 1 -3921 0z m7923 -342
c81 -25 161 -80 216 -148 58 -71 69 -93 95 -184 l21 -74 0 -3937 0 -3937 -25
-75 c-47 -145 -160 -255 -310 -301 l-81 -25 -3955 2 -3955 3 -62 22 c-145 53
-263 178 -303 323 -15 52 -14 7897 1 7976 30 161 152 300 313 355 48 17 283
18 4018 18 3861 1 3968 0 4027 -18z"/>
<path d="M4760 8123 c-488 -310 -1123 -709 -1194 -751 l-60 -35 137 -69 137
-68 235 150 c129 82 244 154 255 160 17 9 68 -18 353 -186 182 -109 413 -245
512 -304 99 -59 179 -110 179 -115 -1 -5 -101 -65 -222 -134 -121 -70 -223
-129 -226 -132 -6 -6 256 -149 274 -149 7 0 67 31 134 69 91 51 1422 837 1433
845 1 1 -339 203 -755 449 -416 246 -775 458 -797 471 l-41 25 -354 -226z
m546 -279 c278 -164 655 -387 753 -444 75 -44 90 -26 -124 -145 -77 -43 -168
-95 -202 -116 -35 -21 -68 -39 -76 -41 -11 -3 -105 51 -477 272 -141 84 -478
283 -533 315 -33 19 -45 31 -38 38 25 25 427 276 437 272 6 -2 123 -70 260
-151z"/>
<path d="M6655 7249 c-50 -28 -148 -86 -220 -128 -71 -43 -175 -103 -230 -136
-55 -32 -120 -70 -145 -85 -25 -15 -139 -83 -255 -150 -336 -196 -496 -290
-557 -328 l-58 -35 0 -898 c0 -506 4 -899 9 -899 5 0 42 20 82 43 41 24 95 56
120 70 l46 26 6 248 c4 136 7 305 7 376 0 140 3 147 72 183 18 9 65 36 103 59
39 23 126 75 195 115 69 40 184 108 255 150 72 42 175 102 230 135 55 32 120
70 145 85 25 15 72 42 105 61 33 18 90 52 128 76 l67 43 0 520 c0 286 -4 520
-8 520 -4 0 -48 -23 -97 -51z m-115 -598 l0 -169 -77 -44 c-86 -50 -217 -126
-683 -400 l-315 -185 -7 161 c-5 121 -4 164 5 173 11 11 109 70 517 309 69 40
220 129 335 198 116 68 213 125 218 125 4 1 7 -75 7 -168z"/>
<path d="M3430 6363 l0 -908 83 -43 c45 -24 170 -89 277 -144 107 -55 278
-144 380 -198 189 -99 325 -170 530 -277 63 -33 176 -92 251 -132 75 -39 139
-71 142 -71 4 0 7 81 7 179 0 130 -3 182 -12 188 -7 4 -309 164 -673 355
l-660 346 -3 171 c-2 126 1 171 9 171 7 0 75 -33 153 -74 516 -270 1023 -535
1094 -572 46 -24 85 -44 87 -44 3 0 5 82 5 183 l-1 182 -326 170 c-180 94
-423 220 -540 282 -117 61 -272 142 -344 180 -93 48 -134 75 -140 91 -10 27
-12 325 -2 335 3 4 25 -4 47 -17 23 -13 145 -78 271 -144 127 -65 403 -210
614 -320 211 -111 392 -204 402 -207 18 -6 19 2 19 174 l0 180 -42 24 c-69 39
-1617 847 -1623 847 -3 0 -5 -408 -5 -907z"/>
<path d="M2095 7058 c-68 -24 -134 -80 -177 -152 l-43 -70 -3 -1406 c-2 -1295
-1 -1409 14 -1460 49 -158 114 -237 339 -407 83 -62 188 -143 235 -178 47 -35
104 -79 128 -97 24 -18 70 -53 102 -78 119 -91 227 -172 310 -234 47 -34 138
-103 203 -152 65 -49 129 -96 141 -104 27 -18 79 -57 164 -124 105 -83 102
-68 102 -519 l0 -387 670 0 670 0 0 793 c0 466 -4 820 -10 860 -43 294 -253
580 -530 720 -19 10 -63 35 -97 55 -60 36 -160 94 -293 171 -94 54 -125 72
-225 131 -192 113 -222 130 -269 155 -27 15 -72 42 -100 60 -28 17 -82 50
-121 72 -38 22 -126 73 -195 114 -68 41 -138 81 -155 90 -16 9 -73 40 -125 70
-89 50 -100 54 -173 58 -96 4 -145 -9 -217 -57 -45 -31 -62 -50 -93 -112 -38
-73 -39 -77 -35 -160 7 -134 66 -230 179 -288 24 -12 73 -41 108 -62 34 -22
65 -40 67 -40 3 0 21 -11 42 -23 58 -37 203 -122 247 -146 22 -12 69 -40 105
-61 36 -21 88 -51 115 -66 28 -14 59 -34 70 -44 21 -18 148 -92 248 -143 59
-31 107 -77 107 -103 0 -8 -7 -28 -15 -44 -30 -57 -115 -44 -220 34 -16 12
-64 39 -105 60 -41 21 -82 44 -90 51 -8 7 -60 38 -115 70 -55 32 -125 72 -155
90 -30 18 -124 72 -208 121 -85 49 -175 101 -200 116 -26 15 -65 37 -86 49
-21 11 -45 26 -53 32 -151 120 -223 271 -209 442 9 125 53 219 142 309 93 93
189 135 326 143 117 8 124 15 110 120 -53 398 -215 1490 -226 1521 -39 109
-100 180 -179 206 -54 18 -175 20 -222 4z"/>
<path d="M7809 7051 c-66 -26 -122 -74 -154 -132 -31 -57 -52 -164 -96 -474
-39 -276 -71 -502 -109 -765 -18 -118 -38 -264 -47 -325 l-15 -109 23 -19 c15
-12 32 -17 50 -13 49 10 162 -14 237 -49 250 -118 351 -417 228 -670 -55 -112
-108 -159 -331 -287 -81 -47 -143 -84 -270 -158 -49 -29 -110 -64 -135 -78
-25 -14 -57 -33 -72 -43 -14 -11 -29 -19 -33 -19 -3 0 -39 -20 -78 -44 -198
-119 -391 -226 -410 -226 -40 1 -87 54 -87 99 0 24 45 70 96 96 34 17 88 48
159 92 11 7 58 34 105 61 96 55 164 95 295 172 50 29 115 67 145 85 30 18 98
58 150 88 52 31 113 66 135 78 75 40 132 91 166 147 33 54 34 60 34 157 0 85
-3 107 -23 145 -34 64 -88 118 -152 149 -46 22 -68 26 -140 26 -97 -1 -103 -3
-325 -135 -71 -42 -187 -110 -257 -151 -70 -41 -185 -107 -255 -148 -71 -41
-177 -103 -238 -139 -175 -104 -297 -172 -306 -172 -5 0 -9 -4 -9 -8 0 -4 -19
-18 -42 -30 -24 -12 -65 -35 -93 -52 -27 -17 -75 -44 -105 -60 -103 -57 -225
-132 -290 -178 -202 -143 -349 -388 -380 -633 -16 -129 -14 -1629 3 -1629 8 0
1249 0 1310 0 4 0 7 172 7 382 0 369 1 383 21 426 21 43 47 66 241 212 40 30
172 129 293 221 121 91 315 237 430 324 116 87 248 188 295 224 47 37 112 84
145 106 92 62 227 201 257 265 68 145 63 14 63 1560 l0 1395 -27 55 c-31 63
-46 82 -108 131 -84 66 -207 87 -301 50z"/>
<path d="M6735 5772 c-6 -5 -30 -17 -55 -26 -25 -10 -47 -21 -50 -25 -3 -4
-50 -30 -105 -56 -55 -27 -117 -59 -137 -72 l-38 -23 0 -173 c0 -96 3 -176 6
-180 3 -3 27 6 54 19 26 13 53 24 58 24 6 0 12 4 14 8 2 5 55 34 118 65 63 31
130 66 148 77 l32 20 -2 172 c-3 145 -5 173 -18 176 -9 1 -20 -1 -25 -6z"/>
</g>
</svg>
